<svg width="130" height="50" viewBox="0 0 130 50" fill="none" xmlns="http://www.w3.org/2000/svg">
<rect x="-0.5" y="0.5" width="128.468" height="48.5327" rx="9.5" transform="matrix(-1 0 0 1 128.469 0)" stroke="white"/>
<path d="M28.4844 18.2412L28.502 18.2432L28.5205 18.2441C29.1324 18.2633 29.7333 18.4065 30.2861 18.665L30.5195 18.7832C30.987 19.0359 31.4042 19.3691 31.7539 19.7656C31.2745 20.1339 30.8589 20.5792 30.5273 21.0859L30.3506 21.376C29.9584 22.0669 29.7251 22.8347 29.665 23.624L29.6494 23.9629V23.9707C29.6505 24.867 29.8819 25.746 30.3193 26.5234L30.5195 26.8496C31.0001 27.5737 31.6541 28.1622 32.417 28.5684C32.1475 29.3298 31.7907 30.0574 31.3516 30.7354L31.123 31.0732L31.1162 31.083C30.6718 31.7477 30.2494 32.3535 29.7725 32.7988C29.3641 33.1801 28.9409 33.4202 28.458 33.4805L28.2471 33.4951H28.2432C27.6485 33.5088 27.2611 33.3412 26.7578 33.127C26.2406 32.9068 25.6341 32.6553 24.7109 32.6553C23.7877 32.6553 23.1749 32.8877 22.6465 33.1084C22.1265 33.3255 21.7384 33.5033 21.1582 33.5273C20.6515 33.5453 20.1599 33.2944 19.6484 32.8145C19.2637 32.4534 18.9039 31.998 18.5537 31.5146L18.2061 31.0244C17.3331 29.7478 16.5489 27.9347 16.2158 26.0469C15.9027 24.2717 15.997 22.4843 16.7305 21.0205L16.8857 20.7314L16.8896 20.7246C17.2385 20.098 17.7247 19.5601 18.3096 19.1494L18.5654 18.9814C19.2648 18.555 20.0631 18.3168 20.8818 18.29C21.4708 18.279 22.0618 18.4782 22.666 18.7168C22.9543 18.8306 23.2639 18.9609 23.543 19.0566C23.822 19.1524 24.1289 19.2354 24.4287 19.2354C24.7347 19.2352 25.0658 19.1337 25.3633 19.0264C25.6512 18.9225 26.0345 18.7633 26.3545 18.6426C27.0577 18.3772 27.7797 18.1673 28.4844 18.2412Z" fill="white" stroke="white"/>
<path d="M28.0606 13.1348C28.0163 13.9903 27.7191 14.8167 27.2003 15.5049L27.0694 15.6689L27.0645 15.6758C26.7705 16.0414 26.4072 16.3447 25.9962 16.5684L25.8165 16.6592C25.4808 16.8178 25.1231 16.9203 24.7569 16.9678C24.7742 16.6679 24.8245 16.3705 24.9073 16.0811L24.9669 15.8896C25.1178 15.4462 25.3439 15.0319 25.6348 14.666L25.7637 14.5127C26.37 13.8222 27.1748 13.3428 28.0606 13.1348Z" fill="white" stroke="white"/>
<path d="M45.8105 22.2773L49.874 33.5293H48.9326L47.9268 30.5576L47.8115 30.2178H42.4238L42.3086 30.5576L41.3018 33.5293H40.3945L44.457 22.2773H45.8105ZM44.6182 23.6543L42.792 29.0293L42.5674 29.6895H47.666L47.4414 29.0293L45.6162 23.6543L45.501 23.3154H44.7334L44.6182 23.6543Z" fill="white" stroke="white"/>
<path d="M53 25.5967V27.083H53.8076C53.8061 27.0849 53.8042 27.0869 53.8027 27.0889C53.3081 27.7228 53.0509 28.5886 53.0508 29.5635C53.0508 30.5458 53.3077 31.4143 53.8027 32.0488C53.8058 32.0527 53.8095 32.0567 53.8125 32.0605H53.0586V36.4854H52.2246V25.5967H53ZM56.3623 25.5029L56.3701 25.5039H56.3779C57.3689 25.5039 58.1664 25.8899 58.7246 26.5645C59.2902 27.2479 59.6405 28.2657 59.6406 29.5635C59.6406 30.8663 59.2924 31.8851 58.7314 32.5674C58.1781 33.2404 57.3895 33.623 56.4121 33.623H56.3994L56.3857 33.624C55.9707 33.6457 55.5575 33.5649 55.1826 33.3896L55.0244 33.3086C54.6096 33.0779 54.2682 32.735 54.0391 32.3193L54.0332 32.3086C54.5182 32.7931 55.159 33.0693 55.8945 33.0693C56.7594 33.0693 57.4952 32.7052 58.0029 32.0605C58.5018 31.427 58.7559 30.5562 58.7559 29.5635C58.7558 28.5784 58.5011 27.7111 58.0029 27.0781C57.4959 26.4341 56.7606 26.0664 55.8945 26.0664C55.062 26.0664 54.3519 26.4219 53.8516 27.0293L53.9658 26.833C54.1773 26.4679 54.4724 26.1591 54.8252 25.9307L54.9805 25.8379C55.4024 25.6037 55.8799 25.4874 56.3623 25.5029Z" fill="white" stroke="white"/>
<path d="M62.834 25.5967V27.083H63.6416C63.6401 27.0849 63.6382 27.0869 63.6367 27.0889C63.1421 27.7228 62.8848 28.5886 62.8848 29.5635C62.8848 30.5458 63.1416 31.4143 63.6367 32.0488C63.6398 32.0527 63.6434 32.0567 63.6465 32.0605H62.8926V36.4854H62.0586V25.5967H62.834ZM66.1963 25.5029L66.2041 25.5039H66.2119C67.2029 25.5039 68.0004 25.8899 68.5586 26.5645C69.1242 27.2479 69.4745 28.2657 69.4746 29.5635C69.4746 30.8663 69.1263 31.8851 68.5654 32.5674C68.0121 33.2404 67.2235 33.623 66.2461 33.623H66.2334L66.2197 33.624C65.7455 33.6488 65.2734 33.5393 64.8584 33.3086C64.4436 33.0779 64.1021 32.735 63.873 32.3193L63.8672 32.3086C64.3522 32.7931 64.993 33.0693 65.7285 33.0693C66.5933 33.0693 67.3292 32.7052 67.8369 32.0605C68.3358 31.427 68.5898 30.5562 68.5898 29.5635V29.0635H68.5645C68.4919 28.2854 68.2489 27.6016 67.8369 27.0781C67.3299 26.4341 66.5945 26.0664 65.7285 26.0664C64.896 26.0664 64.1859 26.4219 63.6855 27.0293L63.7998 26.833C64.0113 26.4679 64.3064 26.1591 64.6592 25.9307L64.8145 25.8379C65.1836 25.633 65.5953 25.5188 66.0156 25.5039L66.1963 25.5029Z" fill="white" stroke="white"/>
<path d="M79.3799 22.0742C80.5836 22.0743 81.5565 22.4117 82.2256 22.9531C82.759 23.3849 83.1158 23.9586 83.248 24.6406H82.3682C82.223 24.0939 81.9128 23.6357 81.4648 23.3008C80.9067 22.8836 80.1714 22.6797 79.3535 22.6797C78.5361 22.6797 77.8022 22.8855 77.2588 23.2861C76.7052 23.6944 76.3653 24.2968 76.3652 25.0127C76.3652 25.5995 76.5975 26.0881 77.0752 26.4668C77.4645 26.7753 78.0044 27.0019 78.6748 27.1875L78.9707 27.2646H78.9717L80.3213 27.5957L80.3252 27.5967C81.5481 27.8858 82.3364 28.2604 82.8174 28.7207C83.2763 29.16 83.5 29.7203 83.5 30.5068C83.5 31.5066 83.108 32.2914 82.4141 32.8379C81.7072 33.3945 80.6445 33.7344 79.2686 33.7344C77.9918 33.7343 76.9692 33.4057 76.2637 32.8613C75.6992 32.4258 75.3171 31.8378 75.165 31.1172H76.0684C76.4538 32.4123 77.8326 33.1298 79.4043 33.1299C80.258 33.1299 81.0304 32.91 81.6035 32.501C82.1836 32.0869 82.5625 31.4716 82.5625 30.7363C82.5625 30.1198 82.3344 29.5983 81.8516 29.1895C81.4538 28.8527 80.9031 28.6094 80.2227 28.4189L79.9229 28.3398H79.9209L78.333 27.957C77.2537 27.6964 76.5296 27.3281 76.0781 26.875C75.642 26.4372 75.421 25.8808 75.4209 25.1406C75.4209 24.2424 75.8068 23.4925 76.4805 22.9561C77.1623 22.4131 78.1604 22.0742 79.3799 22.0742Z" fill="white" stroke="white"/>
<path d="M87.458 23.4844V25.5986H89.1572V26.0508H87.458V31.4746C87.458 31.9198 87.5562 32.3529 87.8623 32.6699C88.1331 32.9502 88.495 33.0661 88.8789 33.0908L89.0449 33.0967H89.0537C89.0853 33.0961 89.1169 33.0928 89.1484 33.0918V33.5615C89.0558 33.5702 88.9631 33.578 88.8701 33.5811L88.6387 33.582H88.6299C87.7681 33.582 87.3026 33.4161 87.041 33.165C86.7848 32.9191 86.6153 32.4859 86.6152 31.6709V26.0508H85.3164V25.5986H86.6152V23.4844H87.458Z" fill="white" stroke="white"/>
<path d="M94.8779 25.4883C96.0548 25.4883 96.9746 25.8858 97.6025 26.5625C98.2342 27.2432 98.6162 28.2566 98.6162 29.5654C98.6161 30.8789 98.2355 31.8912 97.6055 32.5703C96.9792 33.2453 96.0601 33.6416 94.8779 33.6416C93.6963 33.6416 92.7775 33.2453 92.1514 32.5703C91.5214 31.8912 91.1407 30.8788 91.1406 29.5654C91.1406 28.2575 91.5247 27.2445 92.1572 26.5635C92.7863 25.8864 93.7059 25.4883 94.8779 25.4883ZM94.8779 25.999C93.9923 25.9991 93.2486 26.3482 92.7402 27.0068C92.2446 27.649 92.0088 28.5371 92.0088 29.5654C92.0089 30.601 92.2445 31.4892 92.7412 32.1299C93.2509 32.7872 93.9949 33.1299 94.8779 33.1299C95.761 33.1299 96.5057 32.7872 97.0156 32.1299C97.4305 31.595 97.6601 30.8872 97.7256 30.0654H97.748V29.5654L97.7363 29.1846C97.6844 28.3143 97.45 27.5642 97.0156 27.0029C96.5063 26.3449 95.7623 25.999 94.8779 25.999Z" fill="white" stroke="white"/>
<path d="M101.878 25.5967V27.1172H102.418C102.317 27.2527 102.23 27.3987 102.16 27.5527L102.068 27.7891C101.989 28.0303 101.95 28.2823 101.951 28.5352L101.963 28.7314V33.5293H101.129V25.5967H101.878ZM102.945 26.6035C103.036 26.3399 103.193 26.1039 103.4 25.918L103.509 25.8291C103.808 25.6042 104.176 25.4886 104.551 25.5029L104.561 25.5039H104.571C104.614 25.5038 104.656 25.5076 104.698 25.5098V26.1875C104.597 26.1792 104.495 26.1749 104.394 26.1768H104.359C104.117 26.1705 103.876 26.2003 103.645 26.2676L103.405 26.3516C103.243 26.4185 103.088 26.5028 102.945 26.6035Z" fill="white" stroke="white"/>
<path d="M109.729 25.4883C110.845 25.4884 111.71 25.8679 112.3 26.5127C112.894 27.1629 113.256 28.134 113.256 29.3945V29.5225H106.945V30.1182C106.919 30.4582 106.953 30.8 107.048 31.127L107.094 31.2695C107.209 31.6008 107.385 31.9076 107.612 32.1738L107.713 32.2852C107.989 32.5758 108.324 32.8047 108.695 32.9561C109.06 33.1045 109.451 33.1743 109.844 33.1631C110.37 33.2036 110.897 33.0798 111.349 32.8047C111.712 32.5831 112.011 32.2733 112.222 31.9072H112.989C112.547 32.9179 111.38 33.6416 109.806 33.6416C108.623 33.6415 107.711 33.2487 107.092 32.582C106.469 31.9109 106.094 30.9094 106.094 29.6074C106.094 28.301 106.471 27.2737 107.092 26.5801C107.707 25.8923 108.6 25.4883 109.729 25.4883ZM109.732 25.9736C109.459 25.972 109.187 26.011 108.926 26.0889L108.668 26.1797C108.415 26.2833 108.18 26.4244 107.969 26.5967L107.766 26.7793C107.507 27.0367 107.302 27.3428 107.163 27.6797C107.088 27.8608 107.035 28.0493 107 28.2412H106.954V28.7422L107.454 28.7412V29.2412H112.394L112.42 28.7686C112.435 28.4953 112.408 28.2219 112.34 27.958L112.258 27.6982C112.13 27.3562 111.933 27.0437 111.68 26.7812C111.49 26.5845 111.27 26.4192 111.03 26.29L110.783 26.1729C110.45 26.0356 110.092 25.9687 109.731 25.9746L109.732 25.9736Z" fill="white" stroke="white"/>
<mask id="path-12-inside-1_181_132" fill="white">
<path d="M43.0351 12.5558C43.4196 12.5282 43.8054 12.5862 44.1647 12.7258C44.524 12.8653 44.8479 13.0829 45.113 13.3627C45.378 13.6425 45.5776 13.9777 45.6975 14.344C45.8173 14.7103 45.8543 15.0987 45.8058 15.481C45.8058 17.3618 44.7891 18.4429 43.0351 18.4429H40.9082V12.5558H43.0351ZM41.8228 17.6103H42.933C43.2077 17.6268 43.4826 17.5817 43.7378 17.4785C43.9929 17.3753 44.2218 17.2165 44.4078 17.0137C44.5938 16.8108 44.7323 16.5691 44.8131 16.3061C44.8938 16.043 44.9149 15.7652 44.8748 15.493C44.912 15.2218 44.8888 14.9458 44.8068 14.6847C44.7247 14.4235 44.586 14.1838 44.4004 13.9826C44.2148 13.7814 43.987 13.6237 43.7333 13.5208C43.4796 13.418 43.2063 13.3725 42.933 13.3877H41.8228V17.6103Z"/>
</mask>
<path d="M43.0351 12.5558C43.4196 12.5282 43.8054 12.5862 44.1647 12.7258C44.524 12.8653 44.8479 13.0829 45.113 13.3627C45.378 13.6425 45.5776 13.9777 45.6975 14.344C45.8173 14.7103 45.8543 15.0987 45.8058 15.481C45.8058 17.3618 44.7891 18.4429 43.0351 18.4429H40.9082V12.5558H43.0351ZM41.8228 17.6103H42.933C43.2077 17.6268 43.4826 17.5817 43.7378 17.4785C43.9929 17.3753 44.2218 17.2165 44.4078 17.0137C44.5938 16.8108 44.7323 16.5691 44.8131 16.3061C44.8938 16.043 44.9149 15.7652 44.8748 15.493C44.912 15.2218 44.8888 14.9458 44.8068 14.6847C44.7247 14.4235 44.586 14.1838 44.4004 13.9826C44.2148 13.7814 43.987 13.6237 43.7333 13.5208C43.4796 13.418 43.2063 13.3725 42.933 13.3877H41.8228V17.6103Z" fill="white"/>
<path d="M43.0351 12.5558V13.5558H43.0709L43.1067 13.5532L43.0351 12.5558ZM45.8058 15.481L44.8137 15.3552L44.8058 15.4179V15.481H45.8058ZM40.9082 18.4429H39.9082V19.4429H40.9082V18.4429ZM40.9082 12.5558V11.5558H39.9082V12.5558H40.9082ZM41.8228 17.6103H40.8228V18.6103H41.8228V17.6103ZM42.933 17.6103L42.9926 16.6121L42.9628 16.6103H42.933V17.6103ZM44.8748 15.493L43.8841 15.357L43.8648 15.498L43.8855 15.6388L44.8748 15.493ZM42.933 13.3877V14.3877H42.9607L42.9884 14.3862L42.933 13.3877ZM41.8228 13.3877V12.3877H40.8228V13.3877H41.8228ZM43.1067 13.5532C43.3436 13.5362 43.5813 13.572 43.8027 13.658L44.5267 11.7936C44.0295 11.6005 43.4956 11.5201 42.9635 11.5583L43.1067 13.5532ZM43.8027 13.658C44.0241 13.7439 44.2237 13.878 44.3869 14.0504L45.839 12.675C45.4722 12.2878 45.024 11.9867 44.5267 11.7936L43.8027 13.658ZM44.3869 14.0504C44.5502 14.2228 44.6732 14.4292 44.747 14.6549L46.6479 14.0332C46.4821 13.5262 46.2058 13.0623 45.839 12.675L44.3869 14.0504ZM44.747 14.6549C44.8208 14.8805 44.8436 15.1197 44.8137 15.3552L46.7978 15.6068C46.8649 15.0776 46.8137 14.5401 46.6479 14.0332L44.747 14.6549ZM44.8058 15.481C44.8058 16.2481 44.6 16.715 44.3484 16.9836C44.1054 17.243 43.7025 17.4429 43.0351 17.4429V19.4429C44.1217 19.4429 45.1042 19.1022 45.808 18.3509C46.5032 17.6088 46.8058 16.5947 46.8058 15.481H44.8058ZM43.0351 17.4429H40.9082V19.4429H43.0351V17.4429ZM41.9082 18.4429V12.5558H39.9082V18.4429H41.9082ZM40.9082 13.5558H43.0351V11.5558H40.9082V13.5558ZM41.8228 18.6103H42.933V16.6103H41.8228V18.6103ZM42.8733 18.6086C43.2964 18.6338 43.7199 18.5645 44.1128 18.4055L43.3627 16.5515C43.2454 16.599 43.119 16.6197 42.9926 16.6121L42.8733 18.6086ZM44.1128 18.4055C44.5057 18.2465 44.8583 18.002 45.1448 17.6896L43.6708 16.3378C43.5853 16.431 43.4801 16.504 43.3627 16.5515L44.1128 18.4055ZM45.1448 17.6896C45.4313 17.3772 45.6446 17.0048 45.769 16.5996L43.8571 16.0125C43.82 16.1334 43.7564 16.2445 43.6708 16.3378L45.1448 17.6896ZM45.769 16.5996C45.8934 16.1944 45.9259 15.7665 45.8641 15.3472L43.8855 15.6388C43.9039 15.7639 43.8943 15.8916 43.8571 16.0125L45.769 16.5996ZM45.8655 15.629C45.9228 15.2116 45.887 14.7868 45.7608 14.385L43.8527 14.9843C43.8905 15.1047 43.9013 15.232 43.8841 15.357L45.8655 15.629ZM45.7608 14.385C45.6346 13.9831 45.421 13.6142 45.1354 13.3046L43.6653 14.6606C43.7509 14.7534 43.8149 14.8639 43.8527 14.9843L45.7608 14.385ZM45.1354 13.3046C44.8499 12.995 44.4993 12.7523 44.109 12.5941L43.3576 14.4476C43.4746 14.495 43.5797 14.5678 43.6653 14.6606L45.1354 13.3046ZM44.109 12.5941C43.7186 12.4359 43.2981 12.3659 42.8776 12.3892L42.9884 14.3862C43.1145 14.3792 43.2406 14.4001 43.3576 14.4476L44.109 12.5941ZM42.933 12.3877H41.8228V14.3877H42.933V12.3877ZM40.8228 13.3877V17.6103H42.8228V13.3877H40.8228Z" fill="white" mask="url(#path-12-inside-1_181_132)"/>
<mask id="path-14-inside-2_181_132" fill="white">
<path d="M46.838 16.2192C46.8101 15.9273 46.8435 15.6327 46.9361 15.3544C47.0287 15.0761 47.1785 14.8202 47.3758 14.6032C47.5731 14.3861 47.8136 14.2127 48.0819 14.094C48.3502 13.9754 48.6403 13.9141 48.9336 13.9141C49.227 13.9141 49.5171 13.9754 49.7854 14.094C50.0536 14.2127 50.2942 14.3861 50.4915 14.6032C50.6888 14.8202 50.8385 15.0761 50.9311 15.3544C51.0237 15.6327 51.0571 15.9273 51.0292 16.2192C51.0577 16.5115 51.0247 16.8065 50.9323 17.0852C50.84 17.364 50.6903 17.6203 50.4929 17.8378C50.2956 18.0553 50.0549 18.2291 49.7863 18.348C49.5178 18.4669 49.2273 18.5284 48.9336 18.5284C48.6399 18.5284 48.3495 18.4669 48.0809 18.348C47.8124 18.2291 47.5717 18.0553 47.3743 17.8378C47.177 17.6203 47.0273 17.364 46.9349 17.0852C46.8426 16.8065 46.8096 16.5115 46.838 16.2192ZM50.1272 16.2192C50.1272 15.2562 49.6945 14.693 48.9351 14.693C48.1728 14.693 47.744 15.2562 47.744 16.2193C47.744 17.19 48.1728 17.7488 48.9351 17.7488C49.6945 17.7488 50.1272 17.1861 50.1272 16.2192H50.1272Z"/>
</mask>
<path d="M46.838 16.2192C46.8101 15.9273 46.8435 15.6327 46.9361 15.3544C47.0287 15.0761 47.1785 14.8202 47.3758 14.6032C47.5731 14.3861 47.8136 14.2127 48.0819 14.094C48.3502 13.9754 48.6403 13.9141 48.9336 13.9141C49.227 13.9141 49.5171 13.9754 49.7854 14.094C50.0536 14.2127 50.2942 14.3861 50.4915 14.6032C50.6888 14.8202 50.8385 15.0761 50.9311 15.3544C51.0237 15.6327 51.0571 15.9273 51.0292 16.2192C51.0577 16.5115 51.0247 16.8065 50.9323 17.0852C50.84 17.364 50.6903 17.6203 50.4929 17.8378C50.2956 18.0553 50.0549 18.2291 49.7863 18.348C49.5178 18.4669 49.2273 18.5284 48.9336 18.5284C48.6399 18.5284 48.3495 18.4669 48.0809 18.348C47.8124 18.2291 47.5717 18.0553 47.3743 17.8378C47.177 17.6203 47.0273 17.364 46.9349 17.0852C46.8426 16.8065 46.8096 16.5115 46.838 16.2192ZM50.1272 16.2192C50.1272 15.2562 49.6945 14.693 48.9351 14.693C48.1728 14.693 47.744 15.2562 47.744 16.2193C47.744 17.19 48.1728 17.7488 48.9351 17.7488C49.6945 17.7488 50.1272 17.1861 50.1272 16.2192H50.1272Z" fill="white"/>
<path d="M48.9336 13.9141V12.9141V13.9141ZM51.0292 16.2192L50.0338 16.124L50.0246 16.2201L50.0339 16.3162L51.0292 16.2192ZM50.1272 16.2192H49.1272V17.2192H50.1272V16.2192ZM48.9351 17.7488V18.7488H48.9351L48.9351 17.7488ZM50.1272 16.2192H51.1272V15.2192H50.1272V16.2192ZM47.8335 16.124C47.8188 15.9708 47.8364 15.8162 47.885 15.6701L45.9873 15.0387C45.8507 15.4492 45.8014 15.8838 45.8426 16.3145L47.8335 16.124ZM47.885 15.6701C47.9336 15.5241 48.0122 15.3898 48.1157 15.2758L46.6358 13.9305C46.3448 14.2507 46.1239 14.6281 45.9873 15.0387L47.885 15.6701ZM48.1157 15.2758C48.2193 15.1619 48.3456 15.0709 48.4864 15.0086L47.6773 13.1795C47.2817 13.3545 46.9269 13.6103 46.6358 13.9305L48.1157 15.2758ZM48.4864 15.0086C48.6273 14.9462 48.7796 14.9141 48.9336 14.9141V12.9141C48.5009 12.9141 48.073 13.0045 47.6773 13.1795L48.4864 15.0086ZM48.9336 14.9141C49.0877 14.9141 49.24 14.9463 49.3808 15.0086L50.1899 13.1795C49.7942 13.0045 49.3663 12.9141 48.9336 12.9141V14.9141ZM49.3808 15.0086C49.5217 15.0709 49.6479 15.1619 49.7515 15.2758L51.2314 13.9305C50.9404 13.6103 50.5856 13.3545 50.1899 13.1795L49.3808 15.0086ZM49.7515 15.2758C49.8551 15.3898 49.9337 15.5241 49.9823 15.6701L51.88 15.0387C51.7434 14.6281 51.5225 14.2507 51.2314 13.9305L49.7515 15.2758ZM49.9823 15.6701C50.0309 15.8162 50.0484 15.9708 50.0338 16.124L52.0247 16.3145C52.0659 15.8838 52.0166 15.4492 51.88 15.0387L49.9823 15.6701ZM50.0339 16.3162C50.0489 16.4696 50.0315 16.6244 49.9831 16.7707L51.8816 17.3998C52.0178 16.9886 52.0665 16.5534 52.0245 16.1223L50.0339 16.3162ZM49.9831 16.7707C49.9346 16.917 49.856 17.0516 49.7524 17.1658L51.2334 18.5099C51.5245 18.1891 51.7453 17.811 51.8816 17.3998L49.9831 16.7707ZM49.7524 17.1658C49.6488 17.28 49.5224 17.3712 49.3814 17.4336L50.1913 19.2623C50.5873 19.0869 50.9423 18.8306 51.2334 18.5099L49.7524 17.1658ZM49.3814 17.4336C49.2404 17.4961 49.0879 17.5284 48.9336 17.5284V19.5284C49.3668 19.5284 49.7952 19.4377 50.1913 19.2623L49.3814 17.4336ZM48.9336 17.5284C48.7794 17.5284 48.6269 17.4961 48.4858 17.4336L47.676 19.2623C48.0721 19.4377 48.5005 19.5284 48.9336 19.5284V17.5284ZM48.4858 17.4336C48.3448 17.3712 48.2185 17.28 48.1148 17.1658L46.6338 18.5099C46.9249 18.8306 47.2799 19.0869 47.676 19.2623L48.4858 17.4336ZM48.1148 17.1658C48.0112 17.0516 47.9327 16.917 47.8842 16.7707L45.9857 17.3998C46.1219 17.811 46.3427 18.1891 46.6338 18.5099L48.1148 17.1658ZM47.8842 16.7707C47.8357 16.6244 47.8184 16.4696 47.8333 16.3162L45.8427 16.1223C45.8008 16.5534 45.8494 16.9886 45.9857 17.3998L47.8842 16.7707ZM51.1272 16.2192C51.1272 15.6053 50.9914 14.9776 50.6053 14.4811C50.1919 13.9495 49.5878 13.693 48.9351 13.693V15.693C48.9682 15.693 48.9906 15.6961 49.004 15.6988C49.0171 15.7015 49.0229 15.7041 49.0235 15.7044C49.0239 15.7046 49.0228 15.704 49.0214 15.703C49.0202 15.702 49.022 15.7032 49.0265 15.7089C49.0466 15.7347 49.1272 15.8701 49.1272 16.2192H51.1272ZM48.9351 13.693C48.2817 13.693 47.6768 13.949 47.2634 14.4823C46.8779 14.9794 46.744 15.6072 46.744 16.2193H48.744C48.744 15.8682 48.8244 15.733 48.8439 15.7077C48.8482 15.7022 48.8498 15.7014 48.8483 15.7026C48.8467 15.7039 48.8452 15.7046 48.8455 15.7045C48.8459 15.7043 48.8516 15.7016 48.865 15.6989C48.8786 15.6961 48.9013 15.693 48.9351 15.693V13.693ZM46.744 16.2193C46.744 16.8335 46.8773 17.463 47.2635 17.961C47.6782 18.4957 48.2841 18.7488 48.9351 18.7488V16.7488C48.9009 16.7488 48.8777 16.7457 48.8638 16.7429C48.8502 16.7401 48.8444 16.7375 48.844 16.7373C48.8438 16.7372 48.8455 16.738 48.8474 16.7395C48.8492 16.741 48.8478 16.7404 48.8438 16.7352C48.8251 16.711 48.744 16.5757 48.744 16.2193H46.744ZM48.9351 18.7488C49.5876 18.7488 50.1921 18.4925 50.6057 17.96C50.9918 17.4629 51.1272 16.8343 51.1272 16.2192H49.1272C49.1272 16.5711 49.0463 16.7073 49.0261 16.7333C49.0217 16.739 49.0199 16.7401 49.0211 16.7391C49.0225 16.7379 49.0238 16.7373 49.0234 16.7375C49.0229 16.7377 49.0172 16.7403 49.004 16.743C48.9906 16.7458 48.9682 16.7488 48.9351 16.7488L48.9351 18.7488ZM50.1272 15.2192H50.1272V17.2192H50.1272V15.2192Z" fill="white" mask="url(#path-14-inside-2_181_132)"/>
<path d="M56.2354 17.8896L56.2207 17.9424H56.0713L56.0566 17.8896H56.2354ZM53.4258 17.8896L53.4111 17.9424H53.2695L53.2549 17.8896H53.4258ZM54.7871 14.5L54.833 14.6709H54.666L54.7119 14.5H54.7871Z" fill="white" stroke="white"/>
<mask id="path-17-inside-3_181_132" fill="white">
<path d="M58.8516 14.0003H59.6958V14.7061H59.7613C59.8725 14.4526 60.06 14.2401 60.2977 14.0982C60.5354 13.9563 60.8114 13.8921 61.0874 13.9145C61.3036 13.8983 61.5207 13.9309 61.7226 14.0099C61.9245 14.0889 62.106 14.2124 62.2537 14.3711C62.4015 14.5297 62.5116 14.7196 62.5759 14.9267C62.6403 15.1337 62.6572 15.3525 62.6254 15.567V18.443H61.7485V15.7871C61.7485 15.0732 61.4382 14.7181 60.7896 14.7181C60.6428 14.7113 60.4962 14.7363 60.36 14.7913C60.2238 14.8464 60.101 14.9303 60.0003 15.0373C59.8995 15.1442 59.823 15.2716 59.7761 15.4109C59.7292 15.5501 59.713 15.6979 59.7285 15.844V18.4431H58.8516L58.8516 14.0003Z"/>
</mask>
<path d="M58.8516 14.0003H59.6958V14.7061H59.7613C59.8725 14.4526 60.06 14.2401 60.2977 14.0982C60.5354 13.9563 60.8114 13.8921 61.0874 13.9145C61.3036 13.8983 61.5207 13.9309 61.7226 14.0099C61.9245 14.0889 62.106 14.2124 62.2537 14.3711C62.4015 14.5297 62.5116 14.7196 62.5759 14.9267C62.6403 15.1337 62.6572 15.3525 62.6254 15.567V18.443H61.7485V15.7871C61.7485 15.0732 61.4382 14.7181 60.7896 14.7181C60.6428 14.7113 60.4962 14.7363 60.36 14.7913C60.2238 14.8464 60.101 14.9303 60.0003 15.0373C59.8995 15.1442 59.823 15.2716 59.7761 15.4109C59.7292 15.5501 59.713 15.6979 59.7285 15.844V18.4431H58.8516L58.8516 14.0003Z" fill="white"/>
<path d="M58.8516 14.0003V13.0003H57.8516L57.8516 14.0003L58.8516 14.0003ZM59.6958 14.0003H60.6958V13.0003H59.6958V14.0003ZM59.6958 14.7061H58.6958V15.7061H59.6958V14.7061ZM59.7613 14.7061V15.7061H60.4147L60.6771 15.1077L59.7613 14.7061ZM61.0874 13.9145L61.0064 14.9112L61.0843 14.9176L61.1623 14.9117L61.0874 13.9145ZM62.6254 15.567L61.6362 15.4206L61.6254 15.4934V15.567H62.6254ZM62.6254 18.443V19.443H63.6254V18.443H62.6254ZM61.7485 18.443H60.7485V19.443H61.7485V18.443ZM60.7896 14.7181L60.7431 15.717L60.7663 15.7181H60.7896V14.7181ZM59.7285 15.844H60.7285V15.7909L60.7229 15.7382L59.7285 15.844ZM59.7285 18.4431V19.4431H60.7285V18.4431H59.7285ZM58.8516 18.4431L57.8516 18.4431L57.8516 19.4431H58.8516V18.4431ZM58.8516 15.0003H59.6958V13.0003H58.8516V15.0003ZM58.6958 14.0003V14.7061H60.6958V14.0003H58.6958ZM59.6958 15.7061H59.7613V13.7061H59.6958V15.7061ZM60.6771 15.1077C60.7047 15.0448 60.7512 14.9921 60.8102 14.9569L59.7851 13.2395C59.3688 13.4881 59.0403 13.8603 58.8455 14.3044L60.6771 15.1077ZM60.8102 14.9569C60.8693 14.9216 60.9378 14.9057 61.0064 14.9112L61.1684 12.9178C60.6851 12.8785 60.2015 12.991 59.7851 13.2395L60.8102 14.9569ZM61.1623 14.9117C61.229 14.9067 61.2959 14.9168 61.3581 14.9411L62.0871 13.0787C61.7455 12.945 61.3782 12.8898 61.0124 12.9173L61.1623 14.9117ZM61.3581 14.9411C61.4203 14.9655 61.4763 15.0035 61.5218 15.0524L62.9857 13.6897C62.7358 13.4212 62.4287 13.2124 62.0871 13.0787L61.3581 14.9411ZM61.5218 15.0524C61.5673 15.1013 61.6012 15.1597 61.621 15.2235L63.5309 14.6299C63.422 14.2795 63.2357 13.9582 62.9857 13.6897L61.5218 15.0524ZM61.621 15.2235C61.6408 15.2872 61.646 15.3546 61.6362 15.4206L63.6147 15.7134C63.6684 15.3505 63.6397 14.9802 63.5309 14.6299L61.621 15.2235ZM61.6254 15.567V18.443H63.6254V15.567H61.6254ZM62.6254 17.443H61.7485V19.443H62.6254V17.443ZM62.7485 18.443V15.7871H60.7485V18.443H62.7485ZM62.7485 15.7871C62.7485 15.3083 62.6475 14.7557 62.2588 14.3196C61.8497 13.8606 61.293 13.7181 60.7896 13.7181V15.7181C60.8634 15.7181 60.8821 15.7285 60.8665 15.7228C60.8578 15.7196 60.8417 15.7125 60.8219 15.6992C60.8018 15.6858 60.7825 15.6691 60.7657 15.6502C60.7306 15.6108 60.7255 15.5841 60.7303 15.6004C60.7329 15.6094 60.7376 15.6286 60.7416 15.6602C60.7456 15.6919 60.7485 15.7337 60.7485 15.7871H62.7485ZM60.8361 13.7192C60.5453 13.7057 60.255 13.7551 59.9852 13.8643L60.7348 15.7184C60.7374 15.7174 60.7402 15.7169 60.7431 15.717L60.8361 13.7192ZM59.9852 13.8643C59.7153 13.9734 59.4722 14.1396 59.2725 14.3514L60.728 15.7231C60.7299 15.7211 60.7322 15.7195 60.7348 15.7184L59.9852 13.8643ZM59.2725 14.3514C59.0729 14.5633 58.9214 14.8158 58.8284 15.0917L60.7238 15.7301C60.7247 15.7275 60.7261 15.7251 60.728 15.7231L59.2725 14.3514ZM58.8284 15.0917C58.7355 15.3676 58.7033 15.6603 58.7341 15.9498L60.7229 15.7382C60.7226 15.7354 60.7229 15.7327 60.7238 15.7301L58.8284 15.0917ZM58.7285 15.844V18.4431H60.7285V15.844H58.7285ZM59.7285 17.4431H58.8516V19.4431H59.7285V17.4431ZM59.8516 18.4431L59.8516 14.0003L57.8516 14.0003L57.8516 18.4431L59.8516 18.4431Z" fill="white" mask="url(#path-17-inside-3_181_132)"/>
<mask id="path-19-inside-4_181_132" fill="white">
<path d="M64.0234 12.2656H64.9004V18.4428H64.0234V12.2656Z"/>
</mask>
<path d="M64.0234 12.2656H64.9004V18.4428H64.0234V12.2656Z" fill="white"/>
<path d="M64.0234 12.2656V11.2656H63.0234V12.2656H64.0234ZM64.9004 12.2656H65.9004V11.2656H64.9004V12.2656ZM64.9004 18.4428V19.4428H65.9004V18.4428H64.9004ZM64.0234 18.4428H63.0234V19.4428H64.0234V18.4428ZM64.0234 13.2656H64.9004V11.2656H64.0234V13.2656ZM63.9004 12.2656V18.4428H65.9004V12.2656H63.9004ZM64.9004 17.4428H64.0234V19.4428H64.9004V17.4428ZM65.0234 18.4428V12.2656H63.0234V18.4428H65.0234Z" fill="white" mask="url(#path-19-inside-4_181_132)"/>
<mask id="path-21-inside-5_181_132" fill="white">
<path d="M66.1193 16.2193C66.0913 15.9273 66.1248 15.6327 66.2174 15.3544C66.31 15.0761 66.4598 14.8202 66.6571 14.6032C66.8545 14.3861 67.095 14.2127 67.3633 14.094C67.6316 13.9754 67.9217 13.9141 68.2151 13.9141C68.5085 13.9141 68.7986 13.9754 69.0669 14.094C69.3352 14.2127 69.5757 14.3861 69.773 14.6032C69.9704 14.8202 70.1202 15.0761 70.2128 15.3544C70.3054 15.6327 70.3388 15.9273 70.3109 16.2193C70.3393 16.5116 70.3063 16.8066 70.2139 17.0853C70.1215 17.3641 69.9718 17.6204 69.7745 17.8379C69.5771 18.0554 69.3364 18.2291 69.0678 18.3481C68.7993 18.467 68.5088 18.5284 68.2151 18.5284C67.9214 18.5284 67.6309 18.467 67.3624 18.3481C67.0938 18.2291 66.8531 18.0554 66.6557 17.8379C66.4583 17.6204 66.3087 17.3641 66.2163 17.0853C66.1239 16.8066 66.0908 16.5116 66.1193 16.2193ZM69.4084 16.2193C69.4084 15.2563 68.9757 14.6931 68.2163 14.6931C67.454 14.6931 67.0252 15.2563 67.0252 16.2193C67.0252 17.1901 67.454 17.7489 68.2163 17.7489C68.9757 17.7489 69.4084 17.1862 69.4084 16.2193H69.4084Z"/>
</mask>
<path d="M66.1193 16.2193C66.0913 15.9273 66.1248 15.6327 66.2174 15.3544C66.31 15.0761 66.4598 14.8202 66.6571 14.6032C66.8545 14.3861 67.095 14.2127 67.3633 14.094C67.6316 13.9754 67.9217 13.9141 68.2151 13.9141C68.5085 13.9141 68.7986 13.9754 69.0669 14.094C69.3352 14.2127 69.5757 14.3861 69.773 14.6032C69.9704 14.8202 70.1202 15.0761 70.2128 15.3544C70.3054 15.6327 70.3388 15.9273 70.3109 16.2193C70.3393 16.5116 70.3063 16.8066 70.2139 17.0853C70.1215 17.3641 69.9718 17.6204 69.7745 17.8379C69.5771 18.0554 69.3364 18.2291 69.0678 18.3481C68.7993 18.467 68.5088 18.5284 68.2151 18.5284C67.9214 18.5284 67.6309 18.467 67.3624 18.3481C67.0938 18.2291 66.8531 18.0554 66.6557 17.8379C66.4583 17.6204 66.3087 17.3641 66.2163 17.0853C66.1239 16.8066 66.0908 16.5116 66.1193 16.2193ZM69.4084 16.2193C69.4084 15.2563 68.9757 14.6931 68.2163 14.6931C67.454 14.6931 67.0252 15.2563 67.0252 16.2193C67.0252 17.1901 67.454 17.7489 68.2163 17.7489C68.9757 17.7489 69.4084 17.1862 69.4084 16.2193H69.4084Z" fill="white"/>
<path d="M70.3109 16.2193L69.3155 16.1242L69.3063 16.2202L69.3156 16.3161L70.3109 16.2193ZM68.2151 18.5284V17.5284V18.5284ZM69.4084 16.2193H68.4084V17.2193H69.4084V16.2193ZM68.2163 17.7489V18.7489H68.2163L68.2163 17.7489ZM69.4084 16.2193H70.4084V15.2193H69.4084V16.2193ZM67.1147 16.1242C67.1001 15.9709 67.1176 15.8163 67.1662 15.6702L65.2686 15.0386C65.1319 15.4492 65.0826 15.8838 65.1238 16.3145L67.1147 16.1242ZM67.1662 15.6702C67.2148 15.5241 67.2935 15.3898 67.3971 15.2759L65.9172 13.9305C65.6262 14.2506 65.4052 14.6281 65.2686 15.0386L67.1662 15.6702ZM67.3971 15.2759C67.5007 15.1619 67.6269 15.0709 67.7678 15.0086L66.9588 13.1795C66.5631 13.3545 66.2083 13.6103 65.9172 13.9305L67.3971 15.2759ZM67.7678 15.0086C67.9087 14.9463 68.061 14.9141 68.2151 14.9141V12.9141C67.7824 12.9141 67.3545 13.0045 66.9588 13.1795L67.7678 15.0086ZM68.2151 14.9141C68.3692 14.9141 68.5215 14.9463 68.6624 15.0086L69.4714 13.1795C69.0757 13.0045 68.6478 12.9141 68.2151 12.9141V14.9141ZM68.6624 15.0086C68.8033 15.0709 68.9295 15.1619 69.0331 15.2759L70.513 13.9305C70.2219 13.6103 69.8671 13.3545 69.4714 13.1795L68.6624 15.0086ZM69.0331 15.2759C69.1367 15.3898 69.2153 15.5241 69.2639 15.6702L71.1616 15.0386C71.025 14.6281 70.804 14.2506 70.513 13.9305L69.0331 15.2759ZM69.2639 15.6702C69.3126 15.8163 69.3301 15.9709 69.3155 16.1242L71.3064 16.3145C71.3476 15.8838 71.2982 15.4492 71.1616 15.0386L69.2639 15.6702ZM69.3156 16.3161C69.3305 16.4696 69.3132 16.6244 69.2647 16.7707L71.1631 17.4C71.2994 16.9888 71.3482 16.5536 71.3062 16.1225L69.3156 16.3161ZM69.2647 16.7707C69.2162 16.9171 69.1376 17.0516 69.034 17.1658L70.5149 18.51C70.8061 18.1892 71.0269 17.8111 71.1631 17.4L69.2647 16.7707ZM69.034 17.1658C68.9303 17.28 68.804 17.3712 68.6629 17.4337L69.4727 19.2624C69.8688 19.087 70.2238 18.8307 70.5149 18.51L69.034 17.1658ZM68.6629 17.4337C68.5219 17.4962 68.3694 17.5284 68.2151 17.5284V19.5284C68.6483 19.5284 69.0766 19.4378 69.4727 19.2624L68.6629 17.4337ZM68.2151 17.5284C68.0608 17.5284 67.9083 17.4961 67.7673 17.4337L66.9575 19.2624C67.3535 19.4378 67.7819 19.5284 68.2151 19.5284V17.5284ZM67.7673 17.4337C67.6262 17.3712 67.4998 17.28 67.3962 17.1658L65.9153 18.51C66.2064 18.8307 66.5614 19.087 66.9575 19.2624L67.7673 17.4337ZM67.3962 17.1658C67.2926 17.0516 67.214 16.9171 67.1655 16.7707L65.267 17.4C65.4033 17.8111 65.6241 18.1892 65.9153 18.51L67.3962 17.1658ZM67.1655 16.7707C67.117 16.6244 67.0996 16.4696 67.1146 16.3161L65.124 16.1225C65.082 16.5536 65.1308 16.9888 65.267 17.4L67.1655 16.7707ZM70.4084 16.2193C70.4084 15.6054 70.2726 14.9777 69.8865 14.4812C69.4731 13.9496 68.869 13.6931 68.2163 13.6931V15.6931C68.2494 15.6931 68.2718 15.6962 68.2852 15.6989C68.2984 15.7016 68.3041 15.7042 68.3047 15.7045C68.3052 15.7047 68.304 15.7041 68.3027 15.7031C68.3014 15.7021 68.3033 15.7032 68.3077 15.709C68.3278 15.7348 68.4084 15.8702 68.4084 16.2193H70.4084ZM68.2163 13.6931C67.5629 13.6931 66.958 13.9491 66.5446 14.4824C66.1592 14.9795 66.0252 15.6073 66.0252 16.2193H68.0252C68.0252 15.8683 68.1056 15.733 68.1252 15.7078C68.1294 15.7023 68.131 15.7014 68.1295 15.7027C68.1279 15.7039 68.1264 15.7047 68.1267 15.7045C68.1272 15.7043 68.1329 15.7017 68.1462 15.699C68.1598 15.6962 68.1826 15.6931 68.2163 15.6931V13.6931ZM66.0252 16.2193C66.0252 16.8336 66.1585 17.4631 66.5447 17.9611C66.9595 18.4957 67.5654 18.7489 68.2163 18.7489V16.7489C68.1821 16.7489 68.1589 16.7458 68.1451 16.743C68.1315 16.7402 68.1257 16.7376 68.1253 16.7374C68.1251 16.7373 68.1267 16.7381 68.1286 16.7396C68.1304 16.741 68.1291 16.7404 68.125 16.7352C68.1063 16.7111 68.0252 16.5758 68.0252 16.2193H66.0252ZM68.2163 18.7489C68.8688 18.7489 69.4734 18.4926 69.8869 17.9601C70.273 17.463 70.4084 16.8344 70.4084 16.2193H68.4084C68.4084 16.5712 68.3275 16.7074 68.3073 16.7334C68.3029 16.7391 68.3011 16.7402 68.3024 16.7391C68.3037 16.738 68.305 16.7374 68.3046 16.7376C68.3041 16.7378 68.2984 16.7404 68.2853 16.7431C68.2719 16.7459 68.2495 16.7489 68.2163 16.7489L68.2163 18.7489ZM69.4084 15.2193H69.4084V17.2193H69.4084V15.2193Z" fill="white" mask="url(#path-21-inside-5_181_132)"/>
<mask id="path-23-inside-6_181_132" fill="white">
<path d="M71.2344 17.1862C71.2344 16.3864 71.8299 15.9254 72.8871 15.8599L74.0908 15.7905V15.407C74.0908 14.9378 73.7805 14.6728 73.1811 14.6728C72.6915 14.6728 72.3523 14.8525 72.2549 15.1666H71.4059C71.4955 14.4035 72.2135 13.9141 73.2215 13.9141C74.3356 13.9141 74.9639 14.4686 74.9639 15.407V18.4426H74.1197V17.8182H74.0503C73.9095 18.0422 73.7117 18.2248 73.4772 18.3473C73.2427 18.4699 72.9799 18.528 72.7156 18.5158C72.5291 18.5352 72.3405 18.5153 72.1621 18.4574C71.9837 18.3995 71.8195 18.3048 71.6799 18.1796C71.5404 18.0543 71.4286 17.9012 71.3519 17.7301C71.2751 17.559 71.2351 17.3737 71.2344 17.1862ZM74.0908 16.8065V16.4351L73.0057 16.5045C72.3937 16.5454 72.1162 16.7536 72.1162 17.1452C72.1162 17.5451 72.4631 17.7778 72.9402 17.7778C73.08 17.7919 73.2212 17.7778 73.3554 17.7363C73.4896 17.6947 73.6141 17.6266 73.7214 17.536C73.8288 17.4454 73.9168 17.3341 73.9803 17.2088C74.0437 17.0835 74.0813 16.9467 74.0908 16.8065Z"/>
</mask>
<path d="M71.2344 17.1862C71.2344 16.3864 71.8299 15.9254 72.8871 15.8599L74.0908 15.7905V15.407C74.0908 14.9378 73.7805 14.6728 73.1811 14.6728C72.6915 14.6728 72.3523 14.8525 72.2549 15.1666H71.4059C71.4955 14.4035 72.2135 13.9141 73.2215 13.9141C74.3356 13.9141 74.9639 14.4686 74.9639 15.407V18.4426H74.1197V17.8182H74.0503C73.9095 18.0422 73.7117 18.2248 73.4772 18.3473C73.2427 18.4699 72.9799 18.528 72.7156 18.5158C72.5291 18.5352 72.3405 18.5153 72.1621 18.4574C71.9837 18.3995 71.8195 18.3048 71.6799 18.1796C71.5404 18.0543 71.4286 17.9012 71.3519 17.7301C71.2751 17.559 71.2351 17.3737 71.2344 17.1862ZM74.0908 16.8065V16.4351L73.0057 16.5045C72.3937 16.5454 72.1162 16.7536 72.1162 17.1452C72.1162 17.5451 72.4631 17.7778 72.9402 17.7778C73.08 17.7919 73.2212 17.7778 73.3554 17.7363C73.4896 17.6947 73.6141 17.6266 73.7214 17.536C73.8288 17.4454 73.9168 17.3341 73.9803 17.2088C74.0437 17.0835 74.0813 16.9467 74.0908 16.8065Z" fill="white"/>
<path d="M72.8871 15.8599L72.8296 14.8615L72.8253 14.8618L72.8871 15.8599ZM74.0908 15.7905L74.1483 16.7889L75.0908 16.7345V15.7905H74.0908ZM72.2549 15.1666V16.1666H72.992L73.2101 15.4626L72.2549 15.1666ZM71.4059 15.1666L70.4127 15.05L70.2816 16.1666H71.4059V15.1666ZM74.9639 18.4426V19.4426H75.9639V18.4426H74.9639ZM74.1197 18.4426H73.1197V19.4426H74.1197V18.4426ZM74.1197 17.8182H75.1197V16.8182H74.1197V17.8182ZM74.0503 17.8182V16.8182H73.4979L73.2038 17.2859L74.0503 17.8182ZM72.7156 18.5158L72.7618 17.5169L72.6868 17.5134L72.6122 17.5212L72.7156 18.5158ZM74.0908 16.4351H75.0908V15.3691L74.027 15.4371L74.0908 16.4351ZM73.0057 16.5045L72.9419 15.5065L72.9389 15.5067L73.0057 16.5045ZM72.9402 17.7778L73.0409 16.7829L72.9906 16.7778H72.9402V17.7778ZM72.2344 17.1862C72.2344 17.1119 72.2477 17.079 72.2519 17.07C72.2552 17.0628 72.2616 17.0504 72.2866 17.0305C72.3485 16.9813 72.5343 16.8837 72.949 16.858L72.8253 14.8618C72.1828 14.9016 71.5422 15.0673 71.042 15.4649C70.503 15.8934 70.2344 16.5071 70.2344 17.1862H72.2344ZM72.9447 16.8582L74.1483 16.7889L74.0333 14.7922L72.8296 14.8615L72.9447 16.8582ZM75.0908 15.7905V15.407H73.0908V15.7905H75.0908ZM75.0908 15.407C75.0908 14.937 74.9243 14.4424 74.4943 14.0903C74.097 13.7649 73.6087 13.6728 73.1811 13.6728V15.6728C73.2598 15.6728 73.2968 15.6818 73.3031 15.6836C73.3077 15.6849 73.274 15.676 73.2271 15.6376C73.177 15.5966 73.1364 15.5416 73.1121 15.4843C73.0896 15.4311 73.0908 15.3993 73.0908 15.407H75.0908ZM73.1811 13.6728C72.5182 13.6728 71.5911 13.9306 71.2998 14.8706L73.2101 15.4626C73.1928 15.5185 73.1632 15.571 73.126 15.6137C73.09 15.655 73.0567 15.6762 73.0408 15.6847C73.0151 15.6984 73.0491 15.6728 73.1811 15.6728V13.6728ZM72.2549 14.1666H71.4059V16.1666H72.2549V14.1666ZM72.3991 15.2833C72.4077 15.2101 72.4377 15.1457 72.5359 15.0782C72.6498 14.9998 72.8712 14.9141 73.2215 14.9141V12.9141C71.9437 12.9141 70.5856 13.5784 70.4127 15.05L72.3991 15.2833ZM73.2215 14.9141C73.6247 14.9141 73.7982 15.0148 73.8569 15.0654C73.8949 15.0983 73.9639 15.1736 73.9639 15.407H75.9639C75.9639 14.702 75.7188 14.0308 75.1641 13.5518C74.6301 13.0906 73.9324 12.9141 73.2215 12.9141V14.9141ZM73.9639 15.407V18.4426H75.9639V15.407H73.9639ZM74.9639 17.4426H74.1197V19.4426H74.9639V17.4426ZM75.1197 18.4426V17.8182H73.1197V18.4426H75.1197ZM74.1197 16.8182H74.0503V18.8182H74.1197V16.8182ZM73.2038 17.2859C73.1572 17.36 73.0917 17.4205 73.0141 17.4611L73.9404 19.2336C74.3317 19.0291 74.6618 18.7244 74.8969 18.3506L73.2038 17.2859ZM73.0141 17.4611C72.9364 17.5017 72.8493 17.5209 72.7618 17.5169L72.6694 19.5147C73.1105 19.5351 73.5491 19.4381 73.9404 19.2336L73.0141 17.4611ZM72.6122 17.5212C72.5646 17.5261 72.5164 17.521 72.4709 17.5063L71.8533 19.4085C72.1646 19.5096 72.4936 19.5443 72.819 19.5104L72.6122 17.5212ZM72.4709 17.5063C72.4254 17.4915 72.3835 17.4673 72.3479 17.4354L71.0119 18.9237C71.2554 19.1423 71.5421 19.3075 71.8533 19.4085L72.4709 17.5063ZM72.3479 17.4354C72.3123 17.4035 72.2839 17.3644 72.2643 17.3208L70.4395 18.1393C70.5734 18.4379 70.7684 18.7051 71.0119 18.9237L72.3479 17.4354ZM72.2643 17.3208C72.2448 17.2772 72.2346 17.23 72.2344 17.1823L70.2344 17.1901C70.2357 17.5174 70.3055 17.8407 70.4395 18.1393L72.2643 17.3208ZM75.0908 16.8065V16.4351H73.0908V16.8065H75.0908ZM74.027 15.4371L72.9419 15.5065L73.0695 17.5024L74.1546 17.4331L74.027 15.4371ZM72.9389 15.5067C72.5616 15.532 72.1146 15.6145 71.7432 15.8846C71.3043 16.2038 71.1162 16.6744 71.1162 17.1452H73.1162C73.1162 17.1658 73.1122 17.2305 73.0731 17.3132C73.0319 17.4002 72.9723 17.4637 72.9196 17.502C72.8734 17.5357 72.8495 17.5378 72.8782 17.5297C72.9067 17.5217 72.9675 17.5093 73.0724 17.5023L72.9389 15.5067ZM71.1162 17.1452C71.1162 17.6716 71.3609 18.1245 71.755 18.4157C72.1193 18.6849 72.5529 18.7778 72.9402 18.7778V16.7778C72.8503 16.7778 72.8719 16.7543 72.9435 16.8072C72.9835 16.8367 73.0315 16.8858 73.0678 16.9568C73.1047 17.0288 73.1162 17.0969 73.1162 17.1452H71.1162ZM72.8395 18.7727C73.1127 18.8003 73.3886 18.7728 73.651 18.6916L73.0598 16.781C73.0537 16.7829 73.0472 16.7835 73.0409 16.7829L72.8395 18.7727ZM73.651 18.6916C73.9133 18.6104 74.1566 18.4773 74.3664 18.3002L73.0764 16.7719C73.0715 16.776 73.0659 16.7791 73.0598 16.781L73.651 18.6916ZM74.3664 18.3002C74.5763 18.1231 74.7484 17.9056 74.8724 17.6606L73.0881 16.7571C73.0853 16.7627 73.0813 16.7678 73.0764 16.7719L74.3664 18.3002ZM74.8724 17.6606C74.9965 17.4156 75.07 17.1481 75.0885 16.8741L73.0931 16.739C73.0927 16.7453 73.091 16.7514 73.0881 16.7571L74.8724 17.6606Z" fill="white" mask="url(#path-23-inside-6_181_132)"/>
<path d="M79.7666 17.2412H79.7109C79.7314 17.1945 79.7495 17.1465 79.7666 17.0977V17.2412ZM79.7666 15.2061V15.3516C79.7492 15.3019 79.7299 15.2536 79.709 15.2061H79.7666Z" fill="white" stroke="white"/>
<mask id="path-26-inside-7_181_132" fill="white">
<path d="M83.8947 16.2192C83.8667 15.9273 83.9001 15.6327 83.9928 15.3544C84.0854 15.0761 84.2351 14.8202 84.4324 14.6032C84.6297 14.3861 84.8702 14.2127 85.1385 14.094C85.4068 13.9754 85.6969 13.9141 85.9903 13.9141C86.2836 13.9141 86.5737 13.9754 86.842 14.094C87.1103 14.2127 87.3508 14.3861 87.5481 14.6032C87.7454 14.8202 87.8952 15.0761 87.9878 15.3544C88.0804 15.6327 88.1138 15.9273 88.0859 16.2192C88.1143 16.5115 88.0813 16.8065 87.9889 17.0852C87.8966 17.364 87.7469 17.6203 87.5496 17.8378C87.3522 18.0553 87.1115 18.2291 86.843 18.348C86.5744 18.4669 86.284 18.5284 85.9903 18.5284C85.6966 18.5284 85.4061 18.4669 85.1376 18.348C84.869 18.2291 84.6283 18.0553 84.431 17.8378C84.2336 17.6203 84.0839 17.364 83.9916 17.0852C83.8992 16.8065 83.8662 16.5115 83.8947 16.2192ZM87.1838 16.2192C87.1838 15.2562 86.7511 14.693 85.9917 14.693C85.2294 14.693 84.8006 15.2562 84.8006 16.2193C84.8006 17.19 85.2294 17.7488 85.9917 17.7488C86.7511 17.7488 87.1838 17.1861 87.1838 16.2192Z"/>
</mask>
<path d="M83.8947 16.2192C83.8667 15.9273 83.9001 15.6327 83.9928 15.3544C84.0854 15.0761 84.2351 14.8202 84.4324 14.6032C84.6297 14.3861 84.8702 14.2127 85.1385 14.094C85.4068 13.9754 85.6969 13.9141 85.9903 13.9141C86.2836 13.9141 86.5737 13.9754 86.842 14.094C87.1103 14.2127 87.3508 14.3861 87.5481 14.6032C87.7454 14.8202 87.8952 15.0761 87.9878 15.3544C88.0804 15.6327 88.1138 15.9273 88.0859 16.2192C88.1143 16.5115 88.0813 16.8065 87.9889 17.0852C87.8966 17.364 87.7469 17.6203 87.5496 17.8378C87.3522 18.0553 87.1115 18.2291 86.843 18.348C86.5744 18.4669 86.284 18.5284 85.9903 18.5284C85.6966 18.5284 85.4061 18.4669 85.1376 18.348C84.869 18.2291 84.6283 18.0553 84.431 17.8378C84.2336 17.6203 84.0839 17.364 83.9916 17.0852C83.8992 16.8065 83.8662 16.5115 83.8947 16.2192ZM87.1838 16.2192C87.1838 15.2562 86.7511 14.693 85.9917 14.693C85.2294 14.693 84.8006 15.2562 84.8006 16.2193C84.8006 17.19 85.2294 17.7488 85.9917 17.7488C86.7511 17.7488 87.1838 17.1861 87.1838 16.2192Z" fill="white"/>
<path d="M85.9903 13.9141V12.9141V13.9141ZM88.0859 16.2192L87.0904 16.124L87.0812 16.2201L87.0906 16.3162L88.0859 16.2192ZM85.9917 17.7488V18.7488H85.9917L85.9917 17.7488ZM84.8901 16.124C84.8755 15.9708 84.893 15.8162 84.9416 15.6701L83.0439 15.0387C82.9073 15.4492 82.858 15.8838 82.8992 16.3145L84.8901 16.124ZM84.9416 15.6701C84.9902 15.5241 85.0688 15.3898 85.1724 15.2758L83.6925 13.9305C83.4014 14.2507 83.1805 14.6281 83.0439 15.0387L84.9416 15.6701ZM85.1724 15.2758C85.276 15.1619 85.4022 15.0709 85.543 15.0086L84.734 13.1795C84.3383 13.3545 83.9835 13.6103 83.6925 13.9305L85.1724 15.2758ZM85.543 15.0086C85.6839 14.9463 85.8362 14.9141 85.9903 14.9141V12.9141C85.5576 12.9141 85.1297 13.0045 84.734 13.1795L85.543 15.0086ZM85.9903 14.9141C86.1443 14.9141 86.2966 14.9462 86.4375 15.0086L87.2465 13.1795C86.8509 13.0045 86.4229 12.9141 85.9903 12.9141V14.9141ZM86.4375 15.0086C86.5783 15.0709 86.7046 15.1619 86.8082 15.2758L88.288 13.9305C87.997 13.6103 87.6422 13.3545 87.2465 13.1795L86.4375 15.0086ZM86.8082 15.2758C86.9117 15.3898 86.9903 15.5241 87.0389 15.6701L88.9366 15.0387C88.8 14.6281 88.5791 14.2507 88.288 13.9305L86.8082 15.2758ZM87.0389 15.6701C87.0875 15.8162 87.1051 15.9708 87.0904 16.124L89.0813 16.3145C89.1225 15.8838 89.0732 15.4492 88.9366 15.0387L87.0389 15.6701ZM87.0906 16.3162C87.1055 16.4696 87.0882 16.6244 87.0397 16.7707L88.9382 17.3998C89.0744 16.9886 89.1231 16.5534 89.0811 16.1223L87.0906 16.3162ZM87.0397 16.7707C86.9912 16.917 86.9127 17.0516 86.809 17.1658L88.2901 18.5099C88.5812 18.1891 88.802 17.811 88.9382 17.3998L87.0397 16.7707ZM86.809 17.1658C86.7054 17.28 86.5791 17.3712 86.438 17.4336L87.2479 19.2623C87.644 19.0869 87.999 18.8306 88.2901 18.5099L86.809 17.1658ZM86.438 17.4336C86.297 17.4961 86.1445 17.5284 85.9903 17.5284V19.5284C86.4234 19.5284 86.8518 19.4377 87.2479 19.2623L86.438 17.4336ZM85.9903 17.5284C85.836 17.5284 85.6835 17.4961 85.5425 17.4336L84.7326 19.2623C85.1287 19.4377 85.5571 19.5284 85.9903 19.5284V17.5284ZM85.5425 17.4336C85.4015 17.3712 85.2751 17.28 85.1715 17.1658L83.6905 18.5099C83.9816 18.8306 84.3366 19.0869 84.7326 19.2623L85.5425 17.4336ZM85.1715 17.1658C85.0679 17.0516 84.9893 16.917 84.9408 16.7707L83.0423 17.3998C83.1786 17.811 83.3993 18.1891 83.6905 18.5099L85.1715 17.1658ZM84.9408 16.7707C84.8924 16.6244 84.875 16.4696 84.89 16.3162L82.8994 16.1223C82.8574 16.5534 82.9061 16.9886 83.0423 17.3998L84.9408 16.7707ZM88.1838 16.2192C88.1838 15.6053 88.048 14.9776 87.6619 14.4811C87.2485 13.9495 86.6444 13.693 85.9917 13.693V15.693C86.0248 15.693 86.0472 15.6961 86.0606 15.6988C86.0738 15.7015 86.0795 15.7041 86.0801 15.7044C86.0806 15.7046 86.0794 15.704 86.0781 15.703C86.0769 15.702 86.0787 15.7032 86.0831 15.7089C86.1032 15.7347 86.1838 15.8701 86.1838 16.2192H88.1838ZM85.9917 13.693C85.3384 13.693 84.7334 13.949 84.32 14.4823C83.9346 14.9794 83.8006 15.6072 83.8006 16.2193H85.8006C85.8006 15.8682 85.881 15.733 85.9006 15.7077C85.9048 15.7022 85.9064 15.7014 85.9049 15.7026C85.9033 15.7039 85.9018 15.7046 85.9021 15.7045C85.9026 15.7043 85.9083 15.7016 85.9216 15.6989C85.9352 15.6961 85.958 15.693 85.9917 15.693V13.693ZM83.8006 16.2193C83.8006 16.8335 83.9339 17.463 84.3202 17.961C84.7349 18.4957 85.3408 18.7488 85.9917 18.7488V16.7488C85.9575 16.7488 85.9344 16.7457 85.9205 16.7429C85.9069 16.7401 85.9011 16.7375 85.9007 16.7373C85.9005 16.7372 85.9021 16.738 85.904 16.7395C85.9058 16.741 85.9045 16.7404 85.9005 16.7352C85.8817 16.711 85.8006 16.5757 85.8006 16.2193H83.8006ZM85.9917 18.7488C86.6443 18.7488 87.2488 18.4925 87.6624 17.96C88.0484 17.4629 88.1838 16.8343 88.1838 16.2192H86.1838C86.1838 16.5711 86.1029 16.7073 86.0827 16.7333C86.0783 16.739 86.0765 16.7401 86.0778 16.7391C86.0792 16.7379 86.0804 16.7373 86.08 16.7375C86.0795 16.7377 86.0738 16.7403 86.0607 16.743C86.0473 16.7458 86.0249 16.7488 85.9917 16.7488L85.9917 18.7488Z" fill="white" mask="url(#path-26-inside-7_181_132)"/>
<mask id="path-28-inside-8_181_132" fill="white">
<path d="M89.2617 14.0003H90.1059V14.7061H90.1714C90.2826 14.4526 90.4701 14.2401 90.7078 14.0982C90.9455 13.9563 91.2215 13.8921 91.4975 13.9145C91.7137 13.8983 91.9308 13.9309 92.1327 14.0099C92.3346 14.0889 92.5161 14.2124 92.6638 14.3711C92.8116 14.5297 92.9217 14.7196 92.986 14.9267C93.0504 15.1337 93.0673 15.3525 93.0355 15.567V18.443H92.1586V15.7871C92.1586 15.0732 91.8483 14.7181 91.1997 14.7181C91.0529 14.7113 90.9063 14.7363 90.7701 14.7913C90.6339 14.8464 90.5111 14.9303 90.4104 15.0373C90.3096 15.1442 90.2331 15.2716 90.1862 15.4109C90.1393 15.5501 90.1231 15.6979 90.1386 15.844V18.4431H89.2617V14.0003Z"/>
</mask>
<path d="M89.2617 14.0003H90.1059V14.7061H90.1714C90.2826 14.4526 90.4701 14.2401 90.7078 14.0982C90.9455 13.9563 91.2215 13.8921 91.4975 13.9145C91.7137 13.8983 91.9308 13.9309 92.1327 14.0099C92.3346 14.0889 92.5161 14.2124 92.6638 14.3711C92.8116 14.5297 92.9217 14.7196 92.986 14.9267C93.0504 15.1337 93.0673 15.3525 93.0355 15.567V18.443H92.1586V15.7871C92.1586 15.0732 91.8483 14.7181 91.1997 14.7181C91.0529 14.7113 90.9063 14.7363 90.7701 14.7913C90.6339 14.8464 90.5111 14.9303 90.4104 15.0373C90.3096 15.1442 90.2331 15.2716 90.1862 15.4109C90.1393 15.5501 90.1231 15.6979 90.1386 15.844V18.4431H89.2617V14.0003Z" fill="white"/>
<path d="M89.2617 14.0003V13.0003H88.2617V14.0003H89.2617ZM90.1059 14.0003H91.1059V13.0003H90.1059V14.0003ZM90.1059 14.7061H89.1059V15.7061H90.1059V14.7061ZM90.1714 14.7061V15.7061H90.8248L91.0872 15.1077L90.1714 14.7061ZM91.4975 13.9145L91.4165 14.9112L91.4944 14.9176L91.5724 14.9117L91.4975 13.9145ZM93.0355 15.567L92.0463 15.4206L92.0355 15.4934V15.567H93.0355ZM93.0355 18.443V19.443H94.0355V18.443H93.0355ZM92.1586 18.443H91.1586V19.443H92.1586V18.443ZM91.1997 14.7181L91.1532 15.717L91.1764 15.7181H91.1997V14.7181ZM90.1386 15.844H91.1386V15.7909L91.133 15.7382L90.1386 15.844ZM90.1386 18.4431V19.4431H91.1386V18.4431H90.1386ZM89.2617 18.4431H88.2617V19.4431H89.2617V18.4431ZM89.2617 15.0003H90.1059V13.0003H89.2617V15.0003ZM89.1059 14.0003V14.7061H91.1059V14.0003H89.1059ZM90.1059 15.7061H90.1714V13.7061H90.1059V15.7061ZM91.0872 15.1077C91.1148 15.0448 91.1613 14.9921 91.2203 14.9569L90.1952 13.2395C89.7789 13.4881 89.4504 13.8603 89.2556 14.3044L91.0872 15.1077ZM91.2203 14.9569C91.2793 14.9216 91.3479 14.9057 91.4165 14.9112L91.5785 12.9178C91.0952 12.8785 90.6116 12.991 90.1952 13.2395L91.2203 14.9569ZM91.5724 14.9117C91.6391 14.9067 91.706 14.9168 91.7682 14.9411L92.4972 13.0787C92.1556 12.945 91.7883 12.8898 91.4225 12.9173L91.5724 14.9117ZM91.7682 14.9411C91.8304 14.9655 91.8864 15.0035 91.9319 15.0524L93.3958 13.6897C93.1459 13.4212 92.8388 13.2124 92.4972 13.0787L91.7682 14.9411ZM91.9319 15.0524C91.9774 15.1013 92.0113 15.1597 92.0311 15.2235L93.941 14.6299C93.8321 14.2795 93.6458 13.9582 93.3958 13.6897L91.9319 15.0524ZM92.0311 15.2235C92.0509 15.2872 92.0561 15.3545 92.0463 15.4206L94.0248 15.7134C94.0785 15.3505 94.0498 14.9802 93.941 14.6299L92.0311 15.2235ZM92.0355 15.567V18.443H94.0355V15.567H92.0355ZM93.0355 17.443H92.1586V19.443H93.0355V17.443ZM93.1586 18.443V15.7871H91.1586V18.443H93.1586ZM93.1586 15.7871C93.1586 15.3083 93.0576 14.7557 92.6689 14.3196C92.2598 13.8606 91.7031 13.7181 91.1997 13.7181V15.7181C91.2735 15.7181 91.2922 15.7285 91.2766 15.7228C91.2679 15.7196 91.2518 15.7125 91.232 15.6992C91.2119 15.6858 91.1926 15.6691 91.1758 15.6502C91.1407 15.6108 91.1356 15.5841 91.1404 15.6004C91.143 15.6094 91.1477 15.6286 91.1517 15.6602C91.1557 15.6919 91.1586 15.7337 91.1586 15.7871H93.1586ZM91.2462 13.7192C90.9554 13.7057 90.6651 13.7551 90.3953 13.8643L91.1449 15.7184C91.1475 15.7174 91.1503 15.7169 91.1532 15.717L91.2462 13.7192ZM90.3953 13.8643C90.1254 13.9734 89.8823 14.1396 89.6826 14.3514L91.1381 15.7231C91.14 15.7211 91.1423 15.7195 91.1449 15.7184L90.3953 13.8643ZM89.6826 14.3514C89.483 14.5633 89.3315 14.8158 89.2385 15.0917L91.1339 15.7301C91.1348 15.7275 91.1362 15.7251 91.1381 15.7231L89.6826 14.3514ZM89.2385 15.0917C89.1456 15.3676 89.1134 15.6603 89.1442 15.9498L91.133 15.7382C91.1327 15.7354 91.133 15.7327 91.1339 15.7301L89.2385 15.0917ZM89.1386 15.844V18.4431H91.1386V15.844H89.1386ZM90.1386 17.4431H89.2617V19.4431H90.1386V17.4431ZM90.2617 18.4431V14.0003H88.2617V18.4431H90.2617Z" fill="white" mask="url(#path-28-inside-8_181_132)"/>
<mask id="path-30-inside-9_181_132" fill="white">
<path d="M97.9896 12.8945V14.0209H98.9524V14.7594H97.9896V17.0439C97.9896 17.5093 98.1814 17.7131 98.618 17.7131C98.7297 17.7127 98.8414 17.706 98.9524 17.6929V18.4232C98.7949 18.4514 98.6353 18.4664 98.4753 18.468C97.5001 18.468 97.1117 18.125 97.1117 17.2684V14.7594H96.4062V14.0208H97.1117V12.8945H97.9896Z"/>
</mask>
<path d="M97.9896 12.8945V14.0209H98.9524V14.7594H97.9896V17.0439C97.9896 17.5093 98.1814 17.7131 98.618 17.7131C98.7297 17.7127 98.8414 17.706 98.9524 17.6929V18.4232C98.7949 18.4514 98.6353 18.4664 98.4753 18.468C97.5001 18.468 97.1117 18.125 97.1117 17.2684V14.7594H96.4062V14.0208H97.1117V12.8945H97.9896Z" fill="white"/>
<path d="M97.9896 12.8945H98.9896V11.8945H97.9896V12.8945ZM97.9896 14.0209H96.9896V15.0209H97.9896V14.0209ZM98.9524 14.0209H99.9524V13.0209H98.9524V14.0209ZM98.9524 14.7594V15.7594H99.9524V14.7594H98.9524ZM97.9896 14.7594V13.7594H96.9896V14.7594H97.9896ZM98.618 17.7131V18.7131L98.6212 18.7131L98.618 17.7131ZM98.9524 17.6929H99.9524V16.5677L98.835 16.6998L98.9524 17.6929ZM98.9524 18.4232L99.1284 19.4076L99.9524 19.2602V18.4232H98.9524ZM98.4753 18.468V19.4681L98.4856 19.468L98.4753 18.468ZM97.1117 14.7594H98.1117V13.7594H97.1117V14.7594ZM96.4062 14.7594H95.4062V15.7594H96.4062V14.7594ZM96.4062 14.0208V13.0208H95.4062V14.0208H96.4062ZM97.1117 14.0208V15.0208H98.1117V14.0208H97.1117ZM97.1117 12.8945V11.8945H96.1117V12.8945H97.1117ZM96.9896 12.8945V14.0209H98.9896V12.8945H96.9896ZM97.9896 15.0209H98.9524V13.0209H97.9896V15.0209ZM97.9524 14.0209V14.7594H99.9524V14.0209H97.9524ZM98.9524 13.7594H97.9896V15.7594H98.9524V13.7594ZM96.9896 14.7594V17.0439H98.9896V14.7594H96.9896ZM96.9896 17.0439C96.9896 17.3844 97.055 17.8585 97.4113 18.2377C97.7809 18.6312 98.2634 18.7131 98.618 18.7131V16.7131C98.536 16.7131 98.7043 16.6931 98.8689 16.8683C99.0202 17.0293 98.9896 17.1689 98.9896 17.0439H96.9896ZM98.6212 18.7131C98.7711 18.7126 98.9209 18.7036 99.0698 18.6859L98.835 16.6998C98.7619 16.7084 98.6884 16.7129 98.6148 16.7131L98.6212 18.7131ZM97.9524 17.6929V18.4232H99.9524V17.6929H97.9524ZM98.7763 17.4388C98.6736 17.4572 98.5694 17.467 98.465 17.4681L98.4856 19.468C98.7012 19.4657 98.9162 19.4455 99.1284 19.4076L98.7763 17.4388ZM98.4753 17.468C98.2845 17.468 98.1688 17.4506 98.1046 17.4338C98.0454 17.4182 98.0559 17.4101 98.0886 17.4389C98.1259 17.4717 98.1372 17.5038 98.1348 17.4967C98.1288 17.4789 98.1117 17.4129 98.1117 17.2684H96.1117C96.1117 17.8251 96.2365 18.4729 96.767 18.94C97.2646 19.3781 97.9134 19.468 98.4753 19.468V17.468ZM98.1117 17.2684V14.7594H96.1117V17.2684H98.1117ZM97.1117 13.7594H96.4062V15.7594H97.1117V13.7594ZM97.4062 14.7594V14.0208H95.4062V14.7594H97.4062ZM96.4062 15.0208H97.1117V13.0208H96.4062V15.0208ZM98.1117 14.0208V12.8945H96.1117V14.0208H98.1117ZM97.1117 13.8945H97.9896V11.8945H97.1117V13.8945Z" fill="white" mask="url(#path-30-inside-9_181_132)"/>
<mask id="path-32-inside-10_181_132" fill="white">
<path d="M100.152 12.2656H101.022V14.7139H101.091C101.208 14.4581 101.4 14.2444 101.643 14.102C101.885 13.9595 102.166 13.8953 102.446 13.9181C102.661 13.9064 102.876 13.9423 103.076 14.0232C103.275 14.1042 103.455 14.2282 103.601 14.3864C103.747 14.5446 103.856 14.7331 103.921 14.9384C103.986 15.1438 104.005 15.3609 103.976 15.5744V18.4428H103.098V15.7907C103.098 15.081 102.768 14.7216 102.148 14.7216C101.997 14.7093 101.846 14.73 101.704 14.7823C101.562 14.8347 101.433 14.9174 101.327 15.0247C101.22 15.132 101.138 15.2612 101.087 15.4034C101.036 15.5457 101.016 15.6974 101.029 15.848V18.4427H100.152L100.152 12.2656Z"/>
</mask>
<path d="M100.152 12.2656H101.022V14.7139H101.091C101.208 14.4581 101.4 14.2444 101.643 14.102C101.885 13.9595 102.166 13.8953 102.446 13.9181C102.661 13.9064 102.876 13.9423 103.076 14.0232C103.275 14.1042 103.455 14.2282 103.601 14.3864C103.747 14.5446 103.856 14.7331 103.921 14.9384C103.986 15.1438 104.005 15.3609 103.976 15.5744V18.4428H103.098V15.7907C103.098 15.081 102.768 14.7216 102.148 14.7216C101.997 14.7093 101.846 14.73 101.704 14.7823C101.562 14.8347 101.433 14.9174 101.327 15.0247C101.22 15.132 101.138 15.2612 101.087 15.4034C101.036 15.5457 101.016 15.6974 101.029 15.848V18.4427H100.152L100.152 12.2656Z" fill="white"/>
<path d="M100.152 12.2656V11.2656H99.1523L99.1523 12.2656L100.152 12.2656ZM101.022 12.2656H102.022V11.2656H101.022V12.2656ZM101.022 14.7139H100.022V15.7139H101.022V14.7139ZM101.091 14.7139V15.7139H101.734L102.001 15.1286L101.091 14.7139ZM102.446 13.9181L102.365 14.9148L102.433 14.9203L102.5 14.9166L102.446 13.9181ZM103.976 15.5744L102.985 15.4412L102.976 15.5075V15.5744H103.976ZM103.976 18.4428V19.4428H104.976V18.4428H103.976ZM103.098 18.4428H102.098V19.4428H103.098V18.4428ZM102.148 14.7216L102.067 15.7183L102.107 15.7216H102.148V14.7216ZM101.029 15.848H102.029V15.8036L102.025 15.7594L101.029 15.848ZM101.029 18.4427V19.4427H102.029V18.4427H101.029ZM100.152 18.4427L99.1524 18.4428L99.1524 19.4427H100.152V18.4427ZM100.152 13.2656H101.022V11.2656H100.152V13.2656ZM100.022 12.2656V14.7139H102.022V12.2656H100.022ZM101.022 15.7139H101.091V13.7139H101.022V15.7139ZM102.001 15.1286C102.032 15.0599 102.084 15.0025 102.149 14.9642L101.136 13.2397C100.716 13.4863 100.383 13.8563 100.181 14.2993L102.001 15.1286ZM102.149 14.9642C102.214 14.9259 102.29 14.9087 102.365 14.9148L102.527 12.9213C102.042 12.882 101.556 12.9931 101.136 13.2397L102.149 14.9642ZM102.5 14.9166C102.568 14.9129 102.637 14.9243 102.7 14.9499L103.451 13.0965C103.115 12.9603 102.754 12.8999 102.392 12.9195L102.5 14.9166ZM102.7 14.9499C102.763 14.9756 102.82 15.0149 102.866 15.065L104.335 13.7077C104.089 13.4414 103.787 13.2327 103.451 13.0965L102.7 14.9499ZM102.866 15.065C102.913 15.1151 102.947 15.1748 102.968 15.2398L104.875 14.637C104.765 14.2913 104.581 13.974 104.335 13.7077L102.866 15.065ZM102.968 15.2398C102.988 15.3048 102.994 15.3736 102.985 15.4412L104.967 15.7075C105.016 15.3482 104.984 14.9827 104.875 14.637L102.968 15.2398ZM102.976 15.5744V18.4428H104.976V15.5744H102.976ZM103.976 17.4428H103.098V19.4428H103.976V17.4428ZM104.098 18.4428V15.7907H102.098V18.4428H104.098ZM104.098 15.7907C104.098 15.2979 103.985 14.7517 103.6 14.3224C103.198 13.8738 102.653 13.7216 102.148 13.7216V15.7216C102.208 15.7216 102.221 15.7306 102.204 15.7239C102.194 15.7204 102.179 15.7135 102.161 15.7013C102.143 15.6891 102.126 15.6741 102.111 15.6576C102.08 15.623 102.076 15.6003 102.081 15.6157C102.086 15.6343 102.098 15.6881 102.098 15.7907H104.098ZM102.23 13.725C101.934 13.7007 101.636 13.7414 101.358 13.8441L102.05 15.7205C102.055 15.7186 102.061 15.7178 102.067 15.7183L102.23 13.725ZM101.358 13.8441C101.079 13.9469 100.827 14.1093 100.617 14.3199L102.036 15.7294C102.04 15.7255 102.045 15.7225 102.05 15.7205L101.358 13.8441ZM100.617 14.3199C100.408 14.5306 100.247 14.7844 100.147 15.0636L102.028 15.7432C102.029 15.7381 102.032 15.7333 102.036 15.7294L100.617 14.3199ZM100.147 15.0636C100.046 15.3429 100.007 15.6408 100.033 15.9366L102.025 15.7594C102.025 15.7539 102.026 15.7484 102.028 15.7432L100.147 15.0636ZM100.029 15.848V18.4427H102.029V15.848H100.029ZM101.029 17.4427H100.152V19.4427H101.029V17.4427ZM101.152 18.4427L101.152 12.2656L99.1523 12.2656L99.1524 18.4428L101.152 18.4427Z" fill="white" mask="url(#path-32-inside-10_181_132)"/>
<path d="M106.004 15.9597H105.594C105.594 15.9114 105.596 15.8632 105.601 15.8152L106.004 15.8113V15.9597Z" fill="white" stroke="white"/>
</svg>
