<svg width="130" height="50" viewBox="0 0 130 50" fill="none" xmlns="http://www.w3.org/2000/svg">
<rect x="-0.5" y="0.5" width="128.468" height="48.5327" rx="9.5" transform="matrix(-1 0 0 1 128.938 0)" stroke="white"/>
<path d="M45.725 15.7926C45.725 16.5252 45.5 17.1119 45.0569 17.5495C44.5473 18.0682 43.8837 18.3292 43.0705 18.3292C42.2933 18.3292 41.6297 18.0638 41.0853 17.5407C40.5398 17.0099 40.2676 16.3585 40.2676 15.5788C40.2676 14.7991 40.5398 14.1476 41.0853 13.6213C41.6297 13.0938 42.2933 12.8284 43.0705 12.8284C43.4574 12.8284 43.8264 12.9062 44.1784 13.051C44.5293 13.1968 44.815 13.3942 45.022 13.6377L44.5518 14.1005C44.1908 13.6849 43.6993 13.4798 43.0705 13.4798C42.5036 13.4798 42.0121 13.6728 41.5948 14.0621C41.182 14.4525 40.9751 14.9581 40.9751 15.5788C40.9751 16.1995 41.182 16.7094 41.5948 17.0998C42.0121 17.4848 42.5036 17.6822 43.0705 17.6822C43.6723 17.6822 44.1784 17.4848 44.5777 17.0955C44.8409 16.8377 44.9905 16.4824 45.0299 16.0284H43.0705V15.3945H45.6845C45.716 15.5316 45.725 15.6643 45.725 15.7926Z" fill="white" stroke="white" stroke-width="0.16" stroke-miterlimit="10"/>
<path d="M49.8712 13.5912H47.4158V15.2582H49.6294V15.892H47.4158V17.5589H49.8712V18.2049H46.7207V12.9453H49.8712V13.5912Z" fill="white" stroke="white" stroke-width="0.16" stroke-miterlimit="10"/>
<path d="M52.7986 18.2051H52.1035V13.5915H50.5974V12.9456H54.3058V13.5915H52.7986V18.2051Z" fill="white" stroke="white" stroke-width="0.16" stroke-miterlimit="10"/>
<path d="M56.9902 18.2049V12.9453H57.6842V18.2049H56.9902Z" fill="white" stroke="white" stroke-width="0.16" stroke-miterlimit="10"/>
<path d="M60.76 18.2051H60.0705V13.5915H58.5588V12.9456H62.2717V13.5915H60.76V18.2051Z" fill="white" stroke="white" stroke-width="0.16" stroke-miterlimit="10"/>
<path d="M69.2935 17.5317C68.7615 18.0636 68.1023 18.3289 67.3161 18.3289C66.5254 18.3289 65.8663 18.0636 65.3343 17.5317C64.8034 17.0009 64.5391 16.3495 64.5391 15.5785C64.5391 14.8076 64.8034 14.1562 65.3343 13.6254C65.8663 13.0935 66.5254 12.8281 67.3161 12.8281C68.0978 12.8281 68.757 13.0935 69.289 13.6298C69.8244 14.1649 70.0887 14.812 70.0887 15.5785C70.0887 16.3495 69.8244 17.0009 69.2935 17.5317ZM65.8483 17.0908C66.2487 17.4845 66.7357 17.6819 67.3161 17.6819C67.892 17.6819 68.3835 17.4845 68.7795 17.0908C69.1788 16.6971 69.3812 16.1916 69.3812 15.5785C69.3812 14.9655 69.1788 14.4599 68.7795 14.0662C68.3835 13.6725 67.892 13.4752 67.3161 13.4752C66.7357 13.4752 66.2487 13.6725 65.8483 14.0662C65.449 14.4599 65.2465 14.9655 65.2465 15.5785C65.2465 16.1916 65.449 16.6971 65.8483 17.0908Z" fill="white" stroke="white" stroke-width="0.16" stroke-miterlimit="10"/>
<path d="M71.0627 18.2051V12.9456H71.9063L74.5293 17.0361H74.5597L74.5293 16.025V12.9456H75.2233V18.2051H74.4989L71.7522 13.9128H71.7219L71.7522 14.9283V18.2051H71.0627Z" fill="white" stroke="white" stroke-width="0.16" stroke-miterlimit="10"/>
<path d="M28.7332 29.015L17.9148 35.079L17.8809 35.0955C17.4972 35.3203 17.0457 35.4464 16.566 35.4464C15.364 35.4464 14.3538 34.6513 14.0603 33.5767C14.0566 33.573 14.0547 33.5712 14.0547 33.5712L23.6711 23.6582L28.7332 29.015Z" fill="#EA4335"/>
<path d="M34.7473 24.1844C34.7473 25.1439 34.1943 25.9827 33.376 26.4104L28.7315 29.0148L23.4492 23.8828L28.7145 19.332L33.3816 21.9638L33.3929 21.9693C34.1999 22.397 34.7473 23.2303 34.7473 24.1844Z" fill="#FBBC04"/>
<path d="M23.9971 23.9103L14.0534 33.5711C13.997 33.3627 13.9688 33.1489 13.9688 32.9241V15.4064C13.9688 15.1816 13.997 14.9623 14.0534 14.7539L23.9971 23.9103Z" fill="#4285F4"/>
<path d="M14.0547 14.754C14.3538 13.6739 15.364 12.8789 16.566 12.8789C17.057 12.8789 17.5141 13.016 17.9091 13.2408L28.7163 19.3322L23.7388 24.1626L14.0547 14.754Z" fill="#34A853"/>
<mask id="path-13-inside-1_181_114" fill="white">
<path d="M64.3669 25.8901C62.2535 25.8901 60.5269 27.4583 60.5269 29.622C60.5269 31.7682 62.2535 33.3528 64.3669 33.3528C66.4849 33.3528 68.2114 31.7682 68.2114 29.622C68.2114 27.4583 66.4849 25.8901 64.3669 25.8901ZM64.3669 31.8833C63.2073 31.8833 62.2096 30.9501 62.2096 29.622C62.2096 28.2764 63.2073 27.3596 64.3669 27.3596C65.5266 27.3596 66.5287 28.2764 66.5287 29.622C66.5287 30.9501 65.5266 31.8833 64.3669 31.8833ZM55.9885 25.8901C53.8705 25.8901 52.1485 27.4583 52.1485 29.622C52.1485 31.7682 53.8705 33.3528 55.9885 33.3528C58.1053 33.3528 59.8285 31.7682 59.8285 29.622C59.8285 27.4583 58.1053 25.8901 55.9885 25.8901ZM55.9885 31.8833C54.8277 31.8833 53.8267 30.9501 53.8267 29.622C53.8267 28.2764 54.8277 27.3596 55.9885 27.3596C57.1481 27.3596 58.1458 28.2764 58.1458 29.622C58.1458 30.9501 57.1481 31.8833 55.9885 31.8833ZM46.0185 27.0339V28.6197H49.9023C49.7887 29.5058 49.485 30.1572 49.0194 30.6112C48.4525 31.1595 47.5695 31.7682 46.0185 31.7682C43.6283 31.7682 41.7567 29.8874 41.7567 27.557C41.7567 25.2266 43.6283 23.3459 46.0185 23.3459C47.3109 23.3459 48.2512 23.8383 48.9451 24.4765L50.0913 23.359C49.1206 22.4554 47.8294 21.7612 46.0185 21.7612C42.7409 21.7612 39.9863 24.3614 39.9863 27.557C39.9863 30.7527 42.7409 33.3528 46.0185 33.3528C47.79 33.3528 49.1206 32.787 50.1666 31.7254C51.2386 30.6803 51.5726 29.2108 51.5726 28.0242C51.5726 27.6557 51.5411 27.3169 51.4849 27.0339H46.0185ZM86.787 28.2633C86.471 27.4287 85.4958 25.8901 83.5094 25.8901C81.5411 25.8901 79.9023 27.4024 79.9023 29.622C79.9023 31.7123 81.5242 33.3528 83.6984 33.3528C85.4564 33.3528 86.471 32.3077 86.8882 31.6991L85.5835 30.8514C85.1482 31.4721 84.5555 31.8833 83.6984 31.8833C82.8469 31.8833 82.2362 31.5028 81.8448 30.7527L86.9636 28.6877L86.787 28.2633ZM81.5681 29.5058C81.5242 28.067 82.7142 27.33 83.5668 27.33C84.2349 27.33 84.8018 27.6557 84.9908 28.1218L81.5681 29.5058ZM77.4075 33.1258H79.0902V22.1593H77.4075V33.1258ZM74.6518 26.7214H74.5956C74.2177 26.2849 73.4967 25.8901 72.5834 25.8901C70.6668 25.8901 68.9144 27.5307 68.9144 29.6341C68.9144 31.7254 70.6668 33.3528 72.5834 33.3528C73.4967 33.3528 74.2177 32.9548 74.5956 32.5051H74.6518V33.0403C74.6518 34.467 73.8701 35.2336 72.6092 35.2336C71.5812 35.2336 70.9435 34.5098 70.6803 33.9012L69.2169 34.4967C69.6387 35.4858 70.7556 36.7031 72.6092 36.7031C74.5821 36.7031 76.2468 35.5714 76.2468 32.8177V26.1171H74.6518V26.7214ZM72.7274 31.8833C71.5677 31.8833 70.597 30.9369 70.597 29.6341C70.597 28.3192 71.5677 27.3596 72.7274 27.3596C73.8701 27.3596 74.7711 28.3192 74.7711 29.6341C74.7711 30.9369 73.8701 31.8833 72.7274 31.8833ZM94.6649 22.1593H90.6405V33.1258H92.3187V28.9706H94.6649C96.5287 28.9706 98.3564 27.6557 98.3564 25.5644C98.3564 23.4742 96.5242 22.1593 94.6649 22.1593ZM94.7088 27.4452H92.3187V23.6847H94.7088C95.9618 23.6847 96.6771 24.6991 96.6771 25.5644C96.6771 26.4132 95.9618 27.4452 94.7088 27.4452ZM105.083 25.8693C103.87 25.8693 102.609 26.3913 102.091 27.5483L103.58 28.1569C103.9 27.5483 104.49 27.3509 105.113 27.3509C105.984 27.3509 106.866 27.8608 106.88 28.7612V28.8763C106.576 28.7052 105.926 28.4519 105.126 28.4519C103.523 28.4519 101.888 29.3128 101.888 30.9194C101.888 32.3889 103.202 33.3353 104.679 33.3353C105.808 33.3353 106.431 32.8385 106.823 32.2606H106.88V33.1083H108.501V28.9015C108.501 26.9572 107.012 25.8693 105.083 25.8693ZM104.88 31.8789C104.331 31.8789 103.566 31.6136 103.566 30.9501C103.566 30.1013 104.52 29.7756 105.346 29.7756C106.085 29.7756 106.431 29.9346 106.88 30.144C106.748 31.1595 105.852 31.8789 104.88 31.8789ZM114.406 26.1094L112.477 30.8634H112.419L110.425 26.1094H108.615L111.612 32.753L109.902 36.4498H111.656L116.273 26.1094H114.406ZM99.2787 33.1258H100.961V22.1593H99.2787V33.1258Z"/>
</mask>
<path d="M64.3669 25.8901C62.2535 25.8901 60.5269 27.4583 60.5269 29.622C60.5269 31.7682 62.2535 33.3528 64.3669 33.3528C66.4849 33.3528 68.2114 31.7682 68.2114 29.622C68.2114 27.4583 66.4849 25.8901 64.3669 25.8901ZM64.3669 31.8833C63.2073 31.8833 62.2096 30.9501 62.2096 29.622C62.2096 28.2764 63.2073 27.3596 64.3669 27.3596C65.5266 27.3596 66.5287 28.2764 66.5287 29.622C66.5287 30.9501 65.5266 31.8833 64.3669 31.8833ZM55.9885 25.8901C53.8705 25.8901 52.1485 27.4583 52.1485 29.622C52.1485 31.7682 53.8705 33.3528 55.9885 33.3528C58.1053 33.3528 59.8285 31.7682 59.8285 29.622C59.8285 27.4583 58.1053 25.8901 55.9885 25.8901ZM55.9885 31.8833C54.8277 31.8833 53.8267 30.9501 53.8267 29.622C53.8267 28.2764 54.8277 27.3596 55.9885 27.3596C57.1481 27.3596 58.1458 28.2764 58.1458 29.622C58.1458 30.9501 57.1481 31.8833 55.9885 31.8833ZM46.0185 27.0339V28.6197H49.9023C49.7887 29.5058 49.485 30.1572 49.0194 30.6112C48.4525 31.1595 47.5695 31.7682 46.0185 31.7682C43.6283 31.7682 41.7567 29.8874 41.7567 27.557C41.7567 25.2266 43.6283 23.3459 46.0185 23.3459C47.3109 23.3459 48.2512 23.8383 48.9451 24.4765L50.0913 23.359C49.1206 22.4554 47.8294 21.7612 46.0185 21.7612C42.7409 21.7612 39.9863 24.3614 39.9863 27.557C39.9863 30.7527 42.7409 33.3528 46.0185 33.3528C47.79 33.3528 49.1206 32.787 50.1666 31.7254C51.2386 30.6803 51.5726 29.2108 51.5726 28.0242C51.5726 27.6557 51.5411 27.3169 51.4849 27.0339H46.0185ZM86.787 28.2633C86.471 27.4287 85.4958 25.8901 83.5094 25.8901C81.5411 25.8901 79.9023 27.4024 79.9023 29.622C79.9023 31.7123 81.5242 33.3528 83.6984 33.3528C85.4564 33.3528 86.471 32.3077 86.8882 31.6991L85.5835 30.8514C85.1482 31.4721 84.5555 31.8833 83.6984 31.8833C82.8469 31.8833 82.2362 31.5028 81.8448 30.7527L86.9636 28.6877L86.787 28.2633ZM81.5681 29.5058C81.5242 28.067 82.7142 27.33 83.5668 27.33C84.2349 27.33 84.8018 27.6557 84.9908 28.1218L81.5681 29.5058ZM77.4075 33.1258H79.0902V22.1593H77.4075V33.1258ZM74.6518 26.7214H74.5956C74.2177 26.2849 73.4967 25.8901 72.5834 25.8901C70.6668 25.8901 68.9144 27.5307 68.9144 29.6341C68.9144 31.7254 70.6668 33.3528 72.5834 33.3528C73.4967 33.3528 74.2177 32.9548 74.5956 32.5051H74.6518V33.0403C74.6518 34.467 73.8701 35.2336 72.6092 35.2336C71.5812 35.2336 70.9435 34.5098 70.6803 33.9012L69.2169 34.4967C69.6387 35.4858 70.7556 36.7031 72.6092 36.7031C74.5821 36.7031 76.2468 35.5714 76.2468 32.8177V26.1171H74.6518V26.7214ZM72.7274 31.8833C71.5677 31.8833 70.597 30.9369 70.597 29.6341C70.597 28.3192 71.5677 27.3596 72.7274 27.3596C73.8701 27.3596 74.7711 28.3192 74.7711 29.6341C74.7711 30.9369 73.8701 31.8833 72.7274 31.8833ZM94.6649 22.1593H90.6405V33.1258H92.3187V28.9706H94.6649C96.5287 28.9706 98.3564 27.6557 98.3564 25.5644C98.3564 23.4742 96.5242 22.1593 94.6649 22.1593ZM94.7088 27.4452H92.3187V23.6847H94.7088C95.9618 23.6847 96.6771 24.6991 96.6771 25.5644C96.6771 26.4132 95.9618 27.4452 94.7088 27.4452ZM105.083 25.8693C103.87 25.8693 102.609 26.3913 102.091 27.5483L103.58 28.1569C103.9 27.5483 104.49 27.3509 105.113 27.3509C105.984 27.3509 106.866 27.8608 106.88 28.7612V28.8763C106.576 28.7052 105.926 28.4519 105.126 28.4519C103.523 28.4519 101.888 29.3128 101.888 30.9194C101.888 32.3889 103.202 33.3353 104.679 33.3353C105.808 33.3353 106.431 32.8385 106.823 32.2606H106.88V33.1083H108.501V28.9015C108.501 26.9572 107.012 25.8693 105.083 25.8693ZM104.88 31.8789C104.331 31.8789 103.566 31.6136 103.566 30.9501C103.566 30.1013 104.52 29.7756 105.346 29.7756C106.085 29.7756 106.431 29.9346 106.88 30.144C106.748 31.1595 105.852 31.8789 104.88 31.8789ZM114.406 26.1094L112.477 30.8634H112.419L110.425 26.1094H108.615L111.612 32.753L109.902 36.4498H111.656L116.273 26.1094H114.406ZM99.2787 33.1258H100.961V22.1593H99.2787V33.1258Z" fill="white" stroke="white" stroke-width="2" mask="url(#path-13-inside-1_181_114)"/>
</svg>
